<svg xmlns="http://www.w3.org/2000/svg" xmlns:xlink="http://www.w3.org/1999/xlink" width="302.752" height="73.333" viewBox="0 0 302.752 73.333"><defs><style>.a{fill:none;}.b,.e{fill:#0e121d;}.b,.d{fill-rule:evenodd;}.c{clip-path:url(#a);}.d{fill:#004c8a;}.f{fill:#050605;}</style><clipPath id="a"><rect class="a" width="302.752" height="73.333"/></clipPath></defs><g transform="translate(151.376 36.667)"><g transform="translate(-151.376 -36.667)"><path class="b" d="M148.844,39.687l-1.4,7.912h15.842l-2.074,12h-15.9L142.223,77.01H128.4l9-49.71h31.212l-2.128,12.387Z" transform="translate(-105.046 -22.334)"/><path class="b" d="M337.249,13.6h13.023l-8.767,52.22H328.3Z" transform="translate(-268.586 -11.126)"/><g class="c"><path class="b" d="M454.55,99.061h15.406c-.546-3.838-2.947-5.893-6.912-5.893s-6.821,2.092-8.494,5.893m27.738,3.82a26.152,26.152,0,0,1-.819,3.492H453.131c.146,4.4,2.565,6.675,6.712,6.675a9.17,9.17,0,0,0,7.494-3.6h13.1a24.428,24.428,0,0,1-22.3,14.224c-11.968,0-19.371-8.749-17.425-20.462A24.4,24.4,0,0,1,464.717,82.8C476.94,82.8,484.034,91.622,482.288,102.88Z" transform="translate(-360.295 -67.74)"/><path class="b" d="M669.12,128.142l-4.584-11.35-8.149,11.35H641.8l15.77-19.9L648.712,89.8h14.424l4.038,9.658,7.185-9.658h14.224L674.14,107.9l9.749,20.244Z" transform="translate(-525.064 -73.466)"/><path class="d" d="M894.129,103.326a8.587,8.587,0,1,0-8.585,8.785,8.447,8.447,0,0,0,8.585-8.785m13.3,0c0,11.95-8.385,20.481-20.117,20.481a17.934,17.934,0,0,1-9.349-2.546v15.1H864.9v-52.2h8.985l1.655,3.056A17.765,17.765,0,0,1,887.309,82.9c11.732,0,20.117,8.494,20.117,20.444" transform="translate(-707.585 -67.822)"/><path class="d" d="M1140.666,103.471a8.587,8.587,0,1,0-8.585,8.749,8.419,8.419,0,0,0,8.585-8.749m12.568-19.207v38.36h-10.222l-1.128-2.71a18.141,18.141,0,0,1-11.568,4c-11.732,0-20.117-8.549-20.117-20.481s8.385-20.335,20.117-20.335a18.161,18.161,0,0,1,11.714,4.129l1.346-2.965Z" transform="translate(-908.268 -67.985)"/><path class="d" d="M1392.135,110.7c4.747,0,8.167-3.51,8.167-8.4s-3.4-8.367-8.167-8.367a8.387,8.387,0,0,0,0,16.77Zm20.517-26.465v34.086c0,12.059-7.894,19.517-20.553,19.517-10.877,0-18.5-5.493-20.262-14.587h12.75c.909,2.565,4.183,3.947,7.4,3.947,4.42,0,7.985-2.819,7.985-7.366v-1.146a18.589,18.589,0,0,1-10,2.874c-11,0-19.171-8.185-19.171-19.28S1378.948,83,1389.935,83a18.5,18.5,0,0,1,12.1,4.438l1.673-3.219Z" transform="translate(-1121.468 -67.903)"/><path class="b" d="M980.473,333.1l1.273-2h2.074l-2,2ZM979,344.014V333.937h5.348v1.473h-3.456v2.565h3.2v1.473h-3.219v3.092h3.456v1.473Z" transform="translate(-800.932 -270.877)"/><path class="b" d="M1027.6,349.392h.637v-.8a1.733,1.733,0,0,1,.4-1.291,2.14,2.14,0,0,1,1.437-.4h.636v1.4a1,1,0,0,0-.382-.073.309.309,0,0,0-.346.346v.837h.727v1.273h-.727v6.275h-1.746v-6.293h-.637Z" transform="translate(-840.692 -283.803)"/><rect class="e" width="1.746" height="10.067" transform="translate(190.982 63.079)"/><path class="b" d="M1068.928,362.483h1.71v-.709a.966.966,0,0,0-.218-.728.928.928,0,0,0-.691-.218.7.7,0,0,0-.655.273,1.89,1.89,0,0,0-.164.909Zm0,1.346v1.091a1.547,1.547,0,0,0,.218.909.8.8,0,0,0,.691.291q.818,0,.818-1.037v-.346h1.746q0,2.728-2.419,2.728a2.752,2.752,0,0,1-2.11-.709,3.5,3.5,0,0,1-.673-2.365v-2.073q0-2.819,2.565-2.819a2.881,2.881,0,0,1,1.964.582,3.6,3.6,0,0,1,.673,2.583v1.164Z" transform="translate(-873.089 -294.111)"/><path class="b" d="M1098.9,368.148l1.964-3.838-1.892-3.711h2.055l.764,1.819.837-1.819h1.928l-1.892,3.674,1.928,3.874h-1.964l-.873-2.074-.855,2.074Z" transform="translate(-899.024 -295.011)"/><rect class="e" width="1.764" height="1.77" transform="translate(206.752 71.373)"/><path class="b" d="M1174.773,333.1l1.273-2h2.074l-2,2Zm-1.473,10.913V333.937h5.347v1.473h-3.456v2.565h3.2v1.473h-3.2v3.092h3.456v1.473Z" transform="translate(-959.891 -270.877)"/><path class="b" d="M1221.9,349.392h.637v-.8a1.733,1.733,0,0,1,.4-1.291,2.139,2.139,0,0,1,1.437-.4h.637v1.4a1,1,0,0,0-.382-.073.309.309,0,0,0-.346.346v.837h.728v1.273h-.728v6.275h-1.746v-6.293h-.637Z" transform="translate(-999.651 -283.803)"/><path class="b" d="M1245.292,351.421l-1.037.673a1.637,1.637,0,0,0-.564.491,1.4,1.4,0,0,0-.127.691q0,.964.837.964t.891-1.182ZM1243.2,347l1.273-2h2.092l-2,2Zm-1.328,3.038a2.289,2.289,0,0,1,.655-1.873,3.228,3.228,0,0,1,2-.546,2.958,2.958,0,0,1,1.91.491,2.061,2.061,0,0,1,.582,1.655v4.565a3.624,3.624,0,0,0,.146,1.037h-1.673a1.528,1.528,0,0,1-.109-.6,1.617,1.617,0,0,1,.018-.255,2.638,2.638,0,0,1-.782.818,1.564,1.564,0,0,1-.818.236q-2,0-2-2.255a2.141,2.141,0,0,1,.509-1.546,5.077,5.077,0,0,1,1.728-1.019,4.6,4.6,0,0,0,.964-.473.877.877,0,0,0,.127-1.164.879.879,0,0,0-.618-.164,1.377,1.377,0,0,0-.782.218q-.327.218-.2.855Z" transform="translate(-1015.932 -282.249)"/><path class="b" d="M1280.537,364.3h1.746v.709a2.138,2.138,0,0,1-2.4,2.437q-2.4,0-2.383-2.765v-2.51q0-2.674,2.346-2.674a2.473,2.473,0,0,1,1.819.6,2.128,2.128,0,0,1,.618,1.6v.637h-1.746v-.819q0-.673-.637-.673t-.673,1.219v2.856q0,1.2.691,1.2t.6-1.2Z" transform="translate(-1045.138 -294.111)"/><path class="b" d="M1310.2,349.228h1.746v7.548H1310.2Zm0-2.528h1.746v1.6H1310.2Z" transform="translate(-1071.891 -283.64)"/><rect class="e" width="1.746" height="10.067" transform="translate(241.711 63.079)"/><rect class="e" width="1.764" height="1.77" transform="translate(245.476 71.373)"/><path class="d" d="M37.523,28.884v.946l-.073.346A4.529,4.529,0,0,1,35.868,32.9l-4.074,3.4L8.458,55.785,6.093,57.768a3.765,3.765,0,0,1-1.746.855l-.309.073H3.456l-.146-.036a3.183,3.183,0,0,1-1.364-.491A4.092,4.092,0,0,1,.109,55.148a3.6,3.6,0,0,0-.091-.364v-.437a1.546,1.546,0,0,0,.073-.273,4.765,4.765,0,0,1,.382-1.437L2.91,46.927l7.421-17.352a.455.455,0,0,0,0-.4L3.674,13.623.473,6.148a5,5,0,0,1-.4-1.51A1.6,1.6,0,0,0,0,4.365v-.4a2.2,2.2,0,0,0,.091-.327A4.256,4.256,0,0,1,.746,1.746,3.6,3.6,0,0,1,3.274.055L3.565,0h.364l.164.055.364.073A3.838,3.838,0,0,1,6.13.982L15.788,9.04l16.188,13.5,3.983,3.329a4.293,4.293,0,0,1,1.528,2.874.8.8,0,0,0,.055.146"/><path class="d" d="M37.523,28.884v.946l-.073.346A4.529,4.529,0,0,1,35.868,32.9l-4.074,3.4L8.458,55.785,6.093,57.768a3.765,3.765,0,0,1-1.746.855l-.309.073H3.456l-.146-.036a3.183,3.183,0,0,1-1.364-.491A4.092,4.092,0,0,1,.109,55.148a3.6,3.6,0,0,0-.091-.364v-.437a1.546,1.546,0,0,0,.073-.273,4.765,4.765,0,0,1,.382-1.437L2.91,46.927l7.421-17.352a.455.455,0,0,0,0-.4L3.674,13.623.473,6.148a5,5,0,0,1-.4-1.51A1.6,1.6,0,0,0,0,4.365v-.4a2.2,2.2,0,0,0,.091-.327A4.256,4.256,0,0,1,.746,1.746,3.6,3.6,0,0,1,3.274.055L3.565,0h.364l.164.055.364.073A3.838,3.838,0,0,1,6.13.982L15.788,9.04l16.188,13.5,3.983,3.329a4.293,4.293,0,0,1,1.528,2.874.8.8,0,0,0,.055.146"/><path class="f" d="M1607,48.851a5.038,5.038,0,0,1,2.6-4.42,5.438,5.438,0,0,1,5.275,0,5.082,5.082,0,0,1,.055,8.84,5.384,5.384,0,0,1-5.348,0,5.057,5.057,0,0,1-2.583-4.42m.855,0a4.274,4.274,0,0,0,2.2,3.747,4.511,4.511,0,0,0,4.4-.018,4.261,4.261,0,0,0,0-7.439,4.547,4.547,0,0,0-4.4,0,4.238,4.238,0,0,0-2.183,3.711m3.31.509v2.31h-1.037v-5.8h2.037a2.905,2.905,0,0,1,1.746.455,1.51,1.51,0,0,1,.618,1.31,1.413,1.413,0,0,1-.946,1.291,1.385,1.385,0,0,1,.909,1.4v.382a2.092,2.092,0,0,0,.127.855v.109h-1.073a2.565,2.565,0,0,1-.109-.873,6.525,6.525,0,0,0-.018-.746q-.109-.655-.964-.691Zm0-.873h1.146a1.546,1.546,0,0,0,.855-.236.691.691,0,0,0,.327-.6.818.818,0,0,0-.291-.709,1.891,1.891,0,0,0-1.019-.2h-1.019Z" transform="translate(-1314.706 -35.791)"/></g></g></g></svg>